<svg xmlns="http://www.w3.org/2000/svg" xmlns:xlink="http://www.w3.org/1999/xlink" viewBox="0 0 37.75 61.82"><defs><style>.cls-1{fill:none;}.cls-2{clip-path:url(#clip-path);}.cls-3{fill:#4fa8de;}.cls-4{fill:#575da7;}</style><clipPath id="clip-path" transform="translate(-0.04)"><rect class="cls-1" width="37.77" height="61.81"/></clipPath></defs><title>faviconAtivo 1</title><g id="Camada_2" data-name="Camada 2"><g id="Camada_1-2" data-name="Camada 1"><g class="cls-2"><path class="cls-3" d="M18.92,5a37.76,37.76,0,0,1,8.13,23.83v2.06L28.82,32a11.11,11.11,0,0,1,4.81,6.06,20.3,20.3,0,0,0-2.24-1.44L26.67,34l-.85,5.35a11.26,11.26,0,0,1-.3,1.4H12.3c-.2-.61-.36-1.21-.51-1.84L10.72,34,6.37,36.46a20.76,20.76,0,0,0-2.1,1.34,11.53,11.53,0,0,1,4.73-6l1.68-1.08V28.76A38.69,38.69,0,0,1,18.93,5Zm0-5a1.16,1.16,0,0,0-.75.28l-.11.1A42.41,42.41,0,0,0,7,28.75,15,15,0,0,0,.72,37a14.8,14.8,0,0,0,.51,10.26,16.75,16.75,0,0,1,7-7.56,26.37,26.37,0,0,0,1.23,3.87,1.14,1.14,0,0,0,.41.6,1.12,1.12,0,0,0,.7.24H27.61c.35,0,.69-.32.87-.83a15.92,15.92,0,0,0,1-3.72,16.57,16.57,0,0,1,7,7.55,14.42,14.42,0,0,0,.64-10.28,14.73,14.73,0,0,0-6.39-8.16A41.49,41.49,0,0,0,19.77.38,1.14,1.14,0,0,0,19.39.1a1.1,1.1,0,0,0-.47-.1Z" transform="translate(-0.04)"/><path class="cls-3" d="M18.92,27.74A4.79,4.79,0,0,1,16.27,27a4.67,4.67,0,0,1-1.76-2.1,4.65,4.65,0,0,1,1-5.13A4.8,4.8,0,0,1,18,18.42a4.92,4.92,0,0,1,2.76.25,4.84,4.84,0,0,1,2.15,1.72A4.61,4.61,0,0,1,23.7,23a4.42,4.42,0,0,1-.31,1.76,4.6,4.6,0,0,1-2.46,2.54,4.71,4.71,0,0,1-1.77.4,1,1,0,0,1-.24,0Z" transform="translate(-0.04)"/><path class="cls-4" d="M25.57,47.38a2.33,2.33,0,0,0-.9.15,2.28,2.28,0,0,0-1.29,1.22,2.25,2.25,0,0,0-.19.88v7.14a2.32,2.32,0,0,0,.7,1.66,2.4,2.4,0,0,0,3.37,0,2.32,2.32,0,0,0,.7-1.66v-7a2.22,2.22,0,0,0-.15-.89,2.36,2.36,0,0,0-.49-.76,2.17,2.17,0,0,0-.75-.51,2.26,2.26,0,0,0-.89-.19Z" transform="translate(-0.04)"/><path class="cls-4" d="M12.3,47.38a2.44,2.44,0,0,0-.93.13,2.46,2.46,0,0,0-.79.48,2.31,2.31,0,0,0-.54.74,2.18,2.18,0,0,0-.2.9v7.14a2.36,2.36,0,0,0,.69,1.66,2.41,2.41,0,0,0,3.38,0,2.32,2.32,0,0,0,.7-1.66v-7a2.22,2.22,0,0,0-.15-.89,2.36,2.36,0,0,0-.49-.76,2.36,2.36,0,0,0-1.64-.7Z" transform="translate(-0.04)"/><path class="cls-4" d="M18.75,47.38a2.3,2.3,0,0,0-.9.15,2.52,2.52,0,0,0-.77.49,2.32,2.32,0,0,0-.52.73,2.45,2.45,0,0,0-.2.88v9.84a2.36,2.36,0,0,0,.7,1.66,2.41,2.41,0,0,0,3.38,0,2.36,2.36,0,0,0,.7-1.66V49.79A2.23,2.23,0,0,0,21,48.9a2.33,2.33,0,0,0-.48-.76,2.36,2.36,0,0,0-1.64-.7Z" transform="translate(-0.04)"/></g></g></g></svg>